<?xml version="1.0" encoding="utf-8"?>
<svg width="24px"
  height="24px"
  viewBox="0 0 24 24"
  style="enable-background:new 0 0 39.641 39.641;"
  xmlns="http://www.w3.org/2000/svg">
  <g transform="matrix(0.605538, 0, 0, 0.605538, 0.001578, -0.000135)">
    <path id="circle_1_"
      style="fill:#010002;"
      d="M10.732,34.285c0,2.964-2.402,5.356-5.371,5.356c-2.955,0-5.357-2.393-5.357-5.356 c0-2.954,2.402-5.372,5.357-5.372C8.329,28.913,10.732,31.331,10.732,34.285z"/>
    <path style="fill:#010002;"
      d="M22.77,39.342c-1.949,0-3.484-2.75-4.548-5.888c-0.938-2.766-2.501-5.296-4.618-7.416 c-2.111-2.117-4.626-3.682-7.369-4.622C3.1,20.341,0.349,18.81,0.349,16.867s2.722-3.552,5.939-2.757 c9.462,2.337,16.925,9.814,19.255,19.292C26.333,36.62,24.719,39.342,22.77,39.342z"/>
    <path style="fill:#010002;"
      d="M36.513,39.342c-1.944,0-3.494-2.708-4.125-5.961C29.833,20.211,19.458,9.807,6.323,7.24 c-3.252-0.635-5.96-2.182-5.96-4.123c0-1.942,2.701-3.54,5.973-3.017c17.017,2.723,30.49,16.221,33.203,33.267 C40.059,36.64,38.458,39.342,36.513,39.342z"/>
  </g>
  <g/>
  <g/>
  <g/>
  <g/>
  <g/>
  <g/>
  <g/>
  <g/>
  <g/>
  <g/>
  <g/>
  <g/>
  <g/>
  <g/>
  <g/>
</svg>