<?xml version="1.0" encoding="utf-8"?>
<svg width="24px"
	height="24px"
	viewBox="0 0 24 24"
	style="enable-background:new 0 0 460.775 460.775;"
	xmlns="http://www.w3.org/2000/svg">
	<path d="M 14.848 12.015 L 23.762 3.101 C 24.079 2.785 24.079 2.273 23.762 1.956 L 22.059 0.252 C 21.907 0.1 21.701 0.015 21.486 0.015 C 21.271 0.015 21.065 0.1 20.914 0.252 L 12 9.166 L 3.086 0.252 C 2.934 0.1 2.728 0.015 2.513 0.015 C 2.298 0.015 2.092 0.1 1.941 0.252 L 0.237 1.956 C -0.079 2.273 -0.079 2.785 0.237 3.101 L 9.151 12.015 L 0.238 20.927 C -0.078 21.244 -0.078 21.756 0.238 22.072 L 1.942 23.776 C 2.093 23.928 2.299 24.013 2.514 24.013 C 2.729 24.013 2.935 23.928 3.087 23.776 L 12 14.864 L 20.913 23.776 C 21.064 23.928 21.27 24.013 21.485 24.013 C 21.7 24.013 21.906 23.928 22.058 23.776 L 23.761 22.072 C 24.078 21.756 24.078 21.244 23.761 20.927 L 14.848 12.015 Z"/>
	<g/>
	<g/>
	<g/>
	<g/>
	<g/>
	<g/>
	<g/>
	<g/>
	<g/>
	<g/>
	<g/>
	<g/>
	<g/>
	<g/>
	<g/>
</svg>